<svg xmlns="http://www.w3.org/2000/svg" viewBox="0 0 64 64">
  <!-- Checkerboard pattern background -->
  <rect width="64" height="64" fill="#fff"/>
  <rect x="0" y="0" width="16" height="16" fill="#000"/>
  <rect x="32" y="0" width="16" height="16" fill="#000"/>
  <rect x="16" y="16" width="16" height="16" fill="#000"/>
  <rect x="48" y="16" width="16" height="16" fill="#000"/>
  <rect x="0" y="32" width="16" height="16" fill="#000"/>
  <rect x="32" y="32" width="16" height="16" fill="#000"/>
  <rect x="16" y="48" width="16" height="16" fill="#000"/>
  <rect x="48" y="48" width="16" height="16" fill="#000"/>
  
  <!-- White King -->
  <g transform="translate(16, 10) scale(0.8)">
    <path d="M 12 9 C 12 9 8 12 8 15 C 8 18 10 20 10 23 C 10 26 8 28 8 28 L 16 28 C 16 28 14 26 14 23 C 14 20 16 18 16 15 C 16 12 12 9 12 9 Z" fill="#fff" stroke="#000" stroke-width="1.5"/>
    <rect x="10" y="6" width="4" height="3" fill="#fff" stroke="#000" stroke-width="1.5"/>
    <rect x="11" y="4" width="2" height="2" fill="#fff" stroke="#000" stroke-width="1.5"/>
    <line x1="12" y1="2" x2="12" y2="6" stroke="#000" stroke-width="1.5"/>
    <line x1="10" y1="4" x2="14" y2="4" stroke="#000" stroke-width="1.5"/>
  </g>
  
  <!-- Black Queen -->
  <g transform="translate(32, 10) scale(0.8)">
    <path d="M 12 9 C 12 9 8 12 8 15 C 8 18 10 20 10 23 C 10 26 8 28 8 28 L 16 28 C 16 28 14 26 14 23 C 14 20 16 18 16 15 C 16 12 12 9 12 9 Z" fill="#000" stroke="#fff" stroke-width="1"/>
    <circle cx="9" cy="6" r="1.5" fill="#000" stroke="#fff" stroke-width="1"/>
    <circle cx="12" cy="5" r="1.5" fill="#000" stroke="#fff" stroke-width="1"/>
    <circle cx="15" cy="6" r="1.5" fill="#000" stroke="#fff" stroke-width="1"/>
    <path d="M 9 6 L 9 9 L 15 9 L 15 6" fill="#000" stroke="#fff" stroke-width="1"/>
  </g>
</svg>